<?xml version="1.0" encoding="utf-8"?>
<!-- Uploaded to: SVG Repo, www.svgrepo.com, Generator: SVG Repo Mixer Tools -->
<svg width="800px" height="800px" viewBox="0 0 1024 1024" class="icon"  version="1.1" xmlns="http://www.w3.org/2000/svg"><path d="M378.85952 716.8c-84.76672 0-157.0816-30.0032-217.1392-90.08128C101.67296 566.62016 71.68 494.21312 71.68 409.45664c0-60.96896 17.22368-117.42208 51.6096-169.59488C157.7472 187.7504 202.76224 149.37088 258.3552 124.59008c3.50208-2.67264 7.0656-2.19136 10.56768 1.31072 4.4032 2.6624 5.77536 6.59456 3.9936 11.93984-14.06976 33.6384-21.15584 67.55328-21.15584 102.03136 0 78.62272 28.04736 145.94048 84.11136 202.0352 56.05376 56.09472 123.35104 84.14208 201.9328 84.14208 43.23328 0 80.77312-6.59456 112.54784-19.84512 3.50208-2.72384 7.00416-2.2528 10.52672 1.23904 4.37248 2.68288 5.74464 6.6048 3.95264 11.95008C641.91488 579.4816 604.6208 627.36384 552.96 663.1424 501.34016 698.91072 443.2896 716.8 378.86976 716.8z" fill="#FA870B" /><path d="M97.83296 811.69408m43.59168 0l366.21312 0q43.59168 0 43.59168 43.59168l0 0.01024q0 43.59168-43.59168 43.59168l-366.21312 0q-43.59168 0-43.59168-43.59168l0-0.01024q0-43.59168 43.59168-43.59168Z" fill="#DFF1FB" /><path d="M141.43488 646.0416a43.59168 43.59168 0 1 1 0-87.20384h592.896c1.9456 0 3.84 0.13312 5.70368 0.36864 84.41856 5.66272 151.2448 75.4688 151.2448 160.94208 0 89.16992-72.7552 161.30048-162.31424 161.30048-63.97952 0-121.2416-37.14048-147.53792-93.96224a43.59168 43.59168 0 0 1 78.24384-38.41024l0.88064 1.792c12.12416 26.18368 38.64576 43.38688 68.4032 43.38688 41.58464 0 75.14112-33.25952 75.14112-74.10688 0-40.11008-32.34816-72.9088-72.87808-74.0864l-2.2528-0.03072H141.43488zM185.0368 367.02208a43.59168 43.59168 0 0 0 0 87.18336h418.5088c1.9456 0 3.84-0.12288 5.70368-0.36864 84.40832-5.65248 151.2448-75.4688 151.2448-160.93184 0-89.16992-72.7552-161.31072-162.32448-161.31072-63.97952 0-121.2416 37.15072-147.52768 93.97248a43.59168 43.59168 0 0 0 78.24384 38.4l0.88064-1.78176c12.12416-26.19392 38.63552-43.39712 68.4032-43.39712 41.5744 0 75.13088 33.26976 75.13088 74.11712 0 40.09984-32.33792 72.9088-72.86784 74.07616l-2.2528 0.04096H185.01632z" fill="#DFF1FB" /><path d="M854.9376 371.52768l84.16256 84.16256a10.24 10.24 0 0 1 0 14.47936l-84.1728 84.1728a10.24 10.24 0 0 1-14.47936 0l-84.1728-84.1728a10.24 10.24 0 0 1 0-14.47936l84.1728-84.1728a10.24 10.24 0 0 1 14.47936 0z" fill="#FFFFFF" /></svg>